<svg id="Layer_1" data-name="Layer 1" xmlns="http://www.w3.org/2000/svg" viewBox="0 0 2499.49 2134.2"><defs><style>.cls-1{fill:#912626;}.cls-2{fill:#c6302b;}.cls-3,.cls-4{fill:#fff;}.cls-3{fill-rule:evenodd;}</style></defs><title>redis&amp;amp;consul</title><path class="cls-1" d="M2401.56,1649.5c-133.39,69.52-824.38,353.64-971.49,430.33s-228.83,76-345,20.41-851.54-352.59-984-415.91C34.82,1652.7,0,1626,0,1600.76V1348.11s957.32-208.4,1111.87-263.85,208.16-57.45,339.68-9.27,918,190.07,1047.94,237.68l-.06,249.07c0,25-30,52.37-97.87,87.76" transform="translate(0 -5.7)"/><path class="cls-2" d="M2401.51,1398.35c-133.38,69.5-824.35,353.62-971.46,430.3s-228.82,76-345,20.41-851.52-352.6-984-415.88-135.22-106.89-5.11-157.83S957.31,937.48,1111.88,882s208.15-57.45,339.67-9.26,818.38,321.57,948.34,369.16,135,86.9,1.62,156.42" transform="translate(0 -5.7)"/><path class="cls-1" d="M2401.56,1240.7c-133.39,69.54-824.38,353.64-971.49,430.37s-228.83,75.93-345,20.37-851.54-352.58-984-415.9C34.82,1243.91,0,1217.23,0,1192V939.32S957.32,730.93,1111.87,675.48,1320,618,1451.55,666.2s918,190,1047.94,237.66l-.06,249.1c0,25-30,52.36-97.87,87.74" transform="translate(0 -5.7)"/><path class="cls-2" d="M2401.51,989.55c-133.38,69.52-824.35,353.62-971.46,430.34s-228.82,75.93-345,20.37S233.5,1087.68,101,1024.39-34.18,917.51,95.93,866.54s861.39-337.86,1016-393.3S1320,415.79,1451.55,464s818.38,321.54,948.34,369.16,135,86.9,1.62,156.41" transform="translate(0 -5.7)"/><path class="cls-1" d="M2401.56,816.76c-133.39,69.51-824.38,353.64-971.49,430.36s-228.83,75.93-345,20.38S233.48,914.9,101,851.61C34.82,820,0,793.27,0,768.06V515.37S957.32,307,1111.87,251.55s208.16-57.45,339.68-9.28,918,190,1047.94,237.66L2499.43,729c0,25-30,52.34-97.87,87.74" transform="translate(0 -5.7)"/><path class="cls-2" d="M2401.51,565.61c-133.38,69.51-824.35,353.64-971.46,430.32s-228.82,75.93-345,20.41-851.52-352.61-984-415.91S-34.17,493.55,95.93,442.6s861.39-337.84,1016-393.29S1320-8.13,1451.55,40.05s818.38,321.56,948.34,369.17,135,86.87,1.62,156.39" transform="translate(0 -5.7)"/><path class="cls-3" d="M1144.21,548.08c-76.62-12.23-103.87-46.64-60.59-77.24s139.65-45.52,216.27-33.28,103.86,46.64,60.58,77.23c-42.74,30.69-139.5,45.42-216.26,33.29" transform="translate(0 -5.7)"/><path class="cls-3" d="M1455.43,561.3c-35.36-5.64-47.73-21.53-27.75-35.65s64.43-20.93,99.79-15.28,47.73,21.53,27.75,35.65-64.43,20.93-99.79,15.28" transform="translate(0 -5.7)"/><path class="cls-3" d="M1654.83,622.58h0c-27.8,12.25-74.13,14.9-103.4,6s-30.17-26-2.39-38.26,74.11-14.89,103.4-6c27.67,8.6,30.55,24.37,6.51,36.44-1.53.54-2.41,1.16-4.12,1.82" transform="translate(0 -5.7)"/><path class="cls-3" d="M1702.46,549.75c-38.55-2.28-61.5-16.16-49.79-31.29,11.39-14.87,51.82-25.41,90.68-23.06,38.56,2.29,61.53,16.15,49.82,31.28a41.83,41.83,0,0,1-13.46,10.06c-17.59,9.41-47.85,14.93-77.25,13" transform="translate(0 -5.7)"/><path class="cls-3" d="M1840.52,648.76c-25.3,13-72,17-103.11,8.88-31.52-7.81-36-24.9-10.05-37.76,25.3-13,72-17,103.11-8.88,29.61,7.51,35.71,23.17,14.53,35.7a20.92,20.92,0,0,0-4.48,2.06" transform="translate(0 -5.7)"/><path class="cls-3" d="M1879.06,576.59c-37.94-3.28-57.56-17.85-43.63-32.62s55.83-24.16,93.77-20.88,57.56,17.85,43.63,32.62a42.5,42.5,0,0,1-8.64,6.66c-17.91,10.74-53.6,17.1-85.13,14.22" transform="translate(0 -5.7)"/><path class="cls-3" d="M1619.37,721.59h0c-35,9.41-79.73,7.67-100.7-4.33-20.64-12-9.94-29.1,25.22-38.63,35-9.41,79.73-7.68,100.7,4.33,15,8.57,13.22,20.2-2.52,29.43-5.48,3.6-13.15,6.54-22.7,9.2" transform="translate(0 -5.7)"/><path class="cls-3" d="M1927.4,483.87c-40.26,1.92-73-8.57-73.4-23.62.24-14.94,32.91-28.75,73.54-30.92,40.26-1.91,73,8.57,73.4,23.63.18,5.9-4.6,11.17-13,16-13.45,7.89-35.52,13.65-60.54,14.9" transform="translate(0 -5.7)"/><path class="cls-4" d="M861.7,749.87C690.1,722.47,566.62,670.16,514,602.56c-52.29-67.82-27.88-142.76,68.72-211.06C679.64,323,837.2,269.3,1026.4,240.31c189.89-28.89,388.51-29.74,559.49-2.44,142.27,22.72,251.17,62.4,314.94,114.75l-136.06,28.32c-50.91-41.8-137.9-73.49-251.61-91.65-136.72-21.83-295.55-21.15-447.29,1.94C914.9,314.36,789,357.3,711.51,412.06c-77.25,54.62-96.76,114.54-54.94,168.72,42,54,140.67,95.76,277.87,117.66,113.57,18.14,241.65,20.8,370.44,7.67l20.44,53.36C1164.13,775.87,1003.8,772.56,861.7,749.87Z" transform="translate(0 -5.7)"/></svg>